<svg viewBox="0 0 800 240" xmlns="http://www.w3.org/2000/svg" style="background:#FDFBF7; border:3px solid #0D5C75; border-radius:8px;">  <!-- Header -->  <text x="20" y="30" font-family="OpenDyslexic, sans-serif" font-size="16" font-weight="bold" fill="#0D5C75">Topic comic: PDF Topic...</text>    <!-- Panel 1 -->  <g transform="translate(20, 50)">    <rect width="230" height="160" fill="#FFFFFF" stroke="#0D5C75" stroke-width="2" rx="6"/>    <text x="15" y="25" font-family="OpenDyslexic, sans-serif" font-size="11" font-weight="bold" fill="#1A1A1A">Step 1: Introduction</text>    <circle cx="50" cy="90" r="12" fill="none" stroke="#A84C00" stroke-width="2"/>    <line x1="50" y1="102" x2="50" y2="135" stroke="#A84C00" stroke-width="2"/>    <line x1="50" y1="110" x2="35" y2="120" stroke="#A84C00" stroke-width="2"/>    <line x1="50" y1="110" x2="65" y2="120" stroke="#A84C00" stroke-width="2"/>    <line x1="50" y1="135" x2="40" y2="155" stroke="#A84C00" stroke-width="2"/>    <line x1="50" y1="135" x2="60" y2="155" stroke="#A84C00" stroke-width="2"/>    <!-- Speech bubble -->    <path d="M 70,75 Q 110,60 150,75 Q 150,95 120,95 L 105,105 L 110,95 Z" fill="#F0F8FF" stroke="#0D5C75" stroke-width="1.5"/>    <text x="80" y="85" font-family="OpenDyslexic, sans-serif" font-size="9" fill="#1A1A1A">What is this?</text>    <text x="15" y="150" font-family="OpenDyslexic, sans-serif" font-size="9" fill="#555555">Let's break it down.</text>  </g>    <!-- Panel 2 -->  <g transform="translate(280, 50)">    <rect width="230" height="160" fill="#FFFFFF" stroke="#0D5C75" stroke-width="2" rx="6"/>    <text x="15" y="25" font-family="OpenDyslexic, sans-serif" font-size="11" font-weight="bold" fill="#1A1A1A">Step 2: Core Concept</text>    <circle cx="50" cy="90" r="12" fill="none" stroke="#A84C00" stroke-width="2"/>    <line x1="50" y1="102" x2="50" y2="135" stroke="#A84C00" stroke-width="2"/>    <line x1="50" y1="110" x2="35" y2="105" stroke="#A84C00" stroke-width="2"/>    <line x1="50" y1="110" x2="65" y2="105" stroke="#A84C00" stroke-width="2"/>    <line x1="50" y1="135" x2="40" y2="155" stroke="#A84C00" stroke-width="2"/>    <line x1="50" y1="135" x2="60" y2="155" stroke="#A84C00" stroke-width="2"/>    <!-- Speech bubble -->    <path d="M 70,75 Q 120,60 160,75 Q 160,95 130,95 L 115,105 L 120,95 Z" fill="#F0F8FF" stroke="#0D5C75" stroke-width="1.5"/>    <text x="75" y="85" font-family="OpenDyslexic, sans-serif" font-size="8" fill="#1A1A1A">It is simple!</text>    <text x="15" y="150" font-family="OpenDyslexic, sans-serif" font-size="8" fill="#555555">Tres Bakery Chatbot
 A03 — RAG + Tools E...</text>  </g>    <!-- Panel 3 -->  <g transform="translate(540, 50)">    <rect width="240" height="160" fill="#FFFFFF" stroke="#0D5C75" stroke-width="2" rx="6"/>    <text x="15" y="25" font-family="OpenDyslexic, sans-serif" font-size="11" font-weight="bold" fill="#1A1A1A">Step 3: Summary</text>    <circle cx="50" cy="90" r="12" fill="none" stroke="#A84C00" stroke-width="2"/>    <line x1="50" y1="102" x2="50" y2="135" stroke="#A84C00" stroke-width="2"/>    <line x1="50" y1="110" x2="35" y2="125" stroke="#A84C00" stroke-width="2"/>    <line x1="50" y1="110" x2="65" y2="125" stroke="#A84C00" stroke-width="2"/>    <line x1="50" y1="135" x2="40" y2="155" stroke="#A84C00" stroke-width="2"/>    <line x1="50" y1="135" x2="60" y2="155" stroke="#A84C00" stroke-width="2"/>    <!-- Speech bubble -->    <path d="M 70,75 Q 120,60 170,75 Q 170,95 130,95 L 115,105 L 120,95 Z" fill="#F0F8FF" stroke="#0D5C75" stroke-width="1.5"/>    <text x="75" y="85" font-family="OpenDyslexic, sans-serif" font-size="8" fill="#1A1A1A">Got it! Multi-cues work!</text>    <text x="15" y="150" font-family="OpenDyslexic, sans-serif" font-size="9" fill="#555555">Ready for practice.</text>  </g></svg>